<svg width="191" height="191" viewBox="0 0 191 191" fill="none" xmlns="http://www.w3.org/2000/svg">
<path d="M21.5299 34.5178C22.361 31.4014 23.9997 28.5594 26.2803 26.2787C28.561 23.9981 31.403 22.3594 34.5194 21.5283L111.277 1.0587C114.383 0.230249 117.653 0.233135 120.757 1.06704C123.862 1.90095 126.693 3.53658 128.966 5.80987L185.319 62.1627C187.59 64.4358 189.224 67.2659 190.056 70.3693C190.889 73.4727 190.892 76.7405 190.063 79.8451L169.6 156.609C168.769 159.726 167.131 162.568 164.85 164.848C162.569 167.129 159.727 168.768 156.611 169.599L79.8532 190.068C76.747 190.897 73.4776 190.894 70.3729 190.06C67.2682 189.226 64.4374 187.59 62.1643 185.317L5.81146 128.964C3.54041 126.691 1.90666 123.861 1.07393 120.758C0.241191 117.654 0.238725 114.387 1.06677 111.282L21.5299 34.5178ZM26.482 113.985C25.7031 114.192 24.9924 114.6 24.4218 115.169C23.8511 115.738 23.4406 116.448 23.2315 117.226C23.0225 118.004 23.0224 118.824 23.2311 119.602C23.4399 120.381 23.8503 121.09 24.4207 121.659L67.6479 164.886C69.921 167.158 72.7511 168.791 75.8545 169.624C78.9579 170.457 82.2257 170.459 85.3303 169.631L144.192 153.939C144.97 153.732 145.68 153.324 146.25 152.756C146.821 152.188 147.231 151.479 147.441 150.702C147.651 149.925 147.652 149.106 147.444 148.328C147.237 147.55 146.828 146.841 146.259 146.271L103.032 103.044C100.759 100.772 97.929 99.1387 94.8256 98.306C91.7222 97.4733 88.4544 97.4708 85.3498 98.2988L26.482 113.985ZM77.9605 29.1249C73.0732 30.4343 68.0433 35.4642 66.734 40.3515C65.4247 45.2387 68.3285 48.1426 73.2158 46.8333C78.1031 45.5239 83.133 40.494 84.4423 35.6068C85.7516 30.7195 82.8478 27.8156 77.9605 29.1249ZM40.366 66.7195C35.4787 68.0288 30.4488 73.0587 29.1395 77.946C27.8302 82.8332 30.734 85.7371 35.6213 84.4278C40.5086 83.1184 45.5385 78.0886 46.8478 73.2013C48.1636 68.3075 45.2598 65.4037 40.366 66.7195ZM152.845 88.1289C154.478 82.023 152.184 73.4411 147.705 68.9622C143.232 64.4897 138.274 65.8185 136.64 71.9244C135.007 78.0302 137.308 86.6186 141.78 91.0911C146.253 95.5635 151.211 94.2347 152.845 88.1289ZM60.3365 133.385C65.2302 132.082 66.2932 128.115 62.7088 124.531C59.1308 120.953 52.2666 119.118 47.3728 120.421C42.4791 121.724 41.4225 125.697 45.0005 129.275C48.5849 132.86 55.4492 134.694 60.3365 133.385ZM124.04 140.956C127.618 144.534 126.548 148.507 121.661 149.816C116.774 151.126 109.903 149.285 106.325 145.707C102.747 142.129 103.81 138.162 108.697 136.853C113.585 135.543 120.462 137.378 124.04 140.956ZM88.6361 150.458C92.2205 154.042 91.1575 158.009 86.2637 159.312C81.3764 160.621 74.5122 158.787 70.9277 155.203C67.3498 151.625 68.4128 147.658 73.3001 146.349C78.1939 145.046 85.0581 146.88 88.6361 150.458ZM98.1189 115.048C101.703 118.632 100.64 122.599 95.7466 123.902C90.8593 125.224 83.9951 123.377 80.4106 119.793C76.8392 116.221 77.8957 112.261 82.783 110.938C87.6767 109.636 94.5475 111.476 98.1189 115.048Z" fill="url(#paint0_linear_1741_264)"/>
<defs>
<linearGradient id="paint0_linear_1741_264" x1="26.2803" y1="26.2787" x2="164.85" y2="164.848" gradientUnits="userSpaceOnUse">
<stop stop-color="#002147"/>
<stop offset="1" stop-color="#1F87FF"/>
</linearGradient>
</defs>
</svg>
